<svg width="76" height="38" viewBox="0 0 76 38" fill="none" xmlns="http://www.w3.org/2000/svg">
<path d="M17.2385 38L0.0796509 37.9938L2.11973 0L75.9204 0.00580391L75.376 13.8876H72.8571L72.5027 26.594H61.954L61.5747 38H17.2605L17.241 37.9565L17.2385 38ZM2.26649 35.9218L59.5703 35.9259L59.9492 24.52H70.4866L70.7611 14.7009H60.2531L60.348 11.8135H73.3828L73.765 2.07739L4.08394 2.07366L2.26649 35.9218Z" fill="url(#paint0_linear_20_3)"/>
<path d="M71.5546 9.91187L71.7876 3.9786H50.2057L50.0398 11.988L46.5741 3.9786H35.6138L25.7591 23.1909L23.7439 18.7741L31.7363 3.9786H21.4551L14.4638 16.0487L15.1272 3.9786L5.88606 3.97528L4.27299 34.0214L13.4764 34.0243L14.1753 21.2971L19.8412 34.0243H57.73L58.1089 22.6183H68.6389L68.8048 16.6026H58.2889L58.5069 9.91187H71.5546ZM35.6138 24.7927L41.0931 13.3092L46.572 24.7927H35.6138Z" fill="url(#paint1_linear_20_3)"/>
<defs>
<linearGradient id="paint0_linear_20_3" x1="75.9204" y1="0" x2="45.4821" y2="60.7489" gradientUnits="userSpaceOnUse">
<stop offset="0.146079" stop-color="#16A49B"/>
<stop offset="0.853371" stop-color="#16C027"/>
</linearGradient>
<linearGradient id="paint1_linear_20_3" x1="75.9204" y1="0" x2="45.4821" y2="60.7489" gradientUnits="userSpaceOnUse">
<stop offset="0.146079" stop-color="#16A49B"/>
<stop offset="0.853371" stop-color="#16C027"/>
</linearGradient>
</defs>
</svg>
