<svg class="icon" width="28" height="29" viewBox="0 0 28 29" fill="none" xmlns="http://www.w3.org/2000/svg">
<path d="M27.9349 19.3865C28.2523 18.6305 27.3454 17.9865 26.5847 18.3225C25.0642 18.9899 23.4214 19.3332 21.7609 19.3305C15.2508 19.3305 9.97432 14.1598 9.97432 7.78041C9.97194 5.62648 10.5839 3.51654 11.7383 1.69813C12.1801 1.00123 11.6497 0.0367766 10.8408 0.242112C4.60449 1.83346 0 7.38996 0 13.9996C0 21.8505 6.49451 28.2144 14.5073 28.2144C20.574 28.2144 25.7696 24.5666 27.9349 19.3865Z" fill="#20825E"/>
<path d="M19.6173 0.374335C18.7929 -0.176337 17.8097 0.806784 18.3588 1.63124L19.3389 3.10125C19.7364 3.69729 19.9486 4.3977 19.9486 5.11416C19.9486 5.83062 19.7364 6.53103 19.3389 7.12707L18.3588 8.59708C17.8097 9.42154 18.7944 10.4047 19.6189 9.85398L21.0873 8.87397C21.6834 8.47642 22.3838 8.26427 23.1002 8.26427C23.8167 8.26427 24.5171 8.47642 25.1131 8.87397L26.5832 9.85398C27.4076 10.4047 28.3907 9.42154 27.84 8.59708L26.86 7.12707C26.4625 6.53103 26.2503 5.83062 26.2503 5.11416C26.2503 4.3977 26.4625 3.69729 26.86 3.10125L27.84 1.63124C28.3907 0.806784 27.4076 -0.176337 26.5816 0.374335L25.1131 1.35435C24.5171 1.7519 23.8167 1.96405 23.1002 1.96405C22.3838 1.96405 21.6834 1.7519 21.0873 1.35435L19.6173 0.374335Z" fill="#20825E"/>
</svg>
