<svg width="28" height="28" viewBox="0 0 28 28" fill="none" xmlns="http://www.w3.org/2000/svg">
<path d="M27.6371 14.4536L15.0385 0.443421C14.508 -0.147807 13.4889 -0.147807 12.9583 0.443421L0.359737 14.4536C0.178396 14.6548 0.0593652 14.9043 0.0171174 15.172C-0.0251305 15.4396 0.011225 15.7137 0.121764 15.9611C0.345739 16.4668 0.846883 16.7919 1.39982 16.7919H4.19951V26.599C4.19951 26.9706 4.34699 27.3269 4.60951 27.5897C4.87203 27.8524 5.22809 28 5.59935 28H9.79888C10.1701 28 10.5262 27.8524 10.7887 27.5897C11.0512 27.3269 11.1987 26.9706 11.1987 26.599V20.9949H16.7981V26.599C16.7981 26.9706 16.9456 27.3269 17.2081 27.5897C17.4706 27.8524 17.8267 28 18.1979 28H22.3975C22.7687 28 23.1248 27.8524 23.3873 27.5897C23.6498 27.3269 23.7973 26.9706 23.7973 26.599V16.7919H26.597C26.8681 16.793 27.1337 16.7152 27.3614 16.5679C27.589 16.4206 27.769 16.2102 27.8792 15.9623C27.9895 15.7144 28.0253 15.4398 27.9823 15.1719C27.9393 14.904 27.8194 14.6544 27.6371 14.4536Z" fill="white"/>
</svg>
