<svg width="28" height="34" viewBox="0 0 28 34" fill="none" xmlns="http://www.w3.org/2000/svg">
<path d="M10.555 5.80077L13.9267 0.963074L17.2984 5.80077C16.2723 5.50758 15.0995 5.36098 13.9267 5.36098C12.7539 5.36098 11.5812 5.50758 10.555 5.80077ZM21.9895 8.58611C23.6021 10.1987 24.9215 12.251 25.3613 14.5966L27.8534 9.1725L21.9895 8.58611ZM3.66492 11.3715C3.81152 11.2249 3.81152 11.2249 3.66492 11.3715C3.81152 11.2249 3.81152 11.2249 3.81152 11.0783C4.39791 10.1987 5.13089 9.31909 5.86387 8.58611L0 9.0259L2.49215 14.45C2.78534 13.4238 3.22513 12.251 3.66492 11.3715ZM24.4817 22.073C24.3351 22.3662 24.1885 22.6594 24.0419 22.806V23.0992C23.4555 24.1254 22.7225 24.8584 21.9895 25.7379L28 25.2982L25.5079 19.8741C25.2147 20.6071 24.9215 21.34 24.4817 22.073ZM3.95811 23.2458C3.95811 23.0992 3.81152 23.0992 3.81152 22.9526C3.66492 22.806 3.66492 22.806 3.66492 22.6594C3.51832 22.3662 3.37173 22.2196 3.37173 21.9264C3.07853 21.1934 2.78534 20.4605 2.63874 19.7275L0.146597 25.1516L6.15707 25.5913C5.13089 24.8584 4.5445 24.1254 3.95811 23.2458ZM14.8063 28.8165H13.0471C12.1675 28.8165 11.288 28.5233 10.555 28.3767L13.9267 33.2144L17.2984 28.3767C16.5654 28.5233 15.6859 28.6699 14.8063 28.8165ZM20.0838 10.9317C16.712 7.55993 11.1414 7.55993 7.62304 10.9317C4.10471 14.3034 4.25131 19.8741 7.62304 23.3924C10.9948 26.9107 16.5654 26.7641 20.0838 23.3924C23.6021 20.0207 23.6021 14.3034 20.0838 10.9317Z" fill="#20825E"/>
</svg>
