<svg class="icon" width="28" height="29" viewBox="0 0 28 29" fill="none" xmlns="http://www.w3.org/2000/svg">
<path d="M24.7046 16.0165C24.7646 15.5667 24.7946 15.1019 24.7946 14.6072C24.7946 14.1274 24.7646 13.6477 24.6897 13.1979L27.7331 10.8291C28.003 10.6192 28.078 10.2144 27.913 9.91454L25.0345 4.93702C24.8546 4.60719 24.4798 4.50224 24.1499 4.60719L20.5667 6.04647C19.8171 5.47675 19.0225 4.99699 18.1379 4.63717L17.5982 0.829078C17.5382 0.469258 17.2384 0.214386 16.8786 0.214386H11.1214C10.7616 0.214386 10.4768 0.469258 10.4168 0.829078L9.87706 4.63717C8.9925 4.99699 8.18291 5.49175 7.44828 6.04647L3.86507 4.60719C3.53523 4.48725 3.16042 4.60719 2.98051 4.93702L0.116942 9.91454C-0.062968 10.2294 -0.00299815 10.6192 0.296852 10.8291L3.34033 13.1979C3.26537 13.6477 3.2054 14.1424 3.2054 14.6072C3.2054 15.072 3.23538 15.5667 3.31034 16.0165L0.266867 18.3853C-0.00299813 18.5952 -0.0779605 19 0.0869571 19.2998L2.96552 24.2774C3.14543 24.6072 3.52024 24.7121 3.85008 24.6072L7.43328 23.1679C8.18291 23.7376 8.97751 24.2174 9.86207 24.5772L10.4018 28.3853C10.4768 28.7451 10.7616 29 11.1214 29H16.8786C17.2384 29 17.5382 28.7451 17.5832 28.3853L18.1229 24.5772C19.0075 24.2174 19.8171 23.7376 20.5517 23.1679L24.1349 24.6072C24.4648 24.7271 24.8396 24.6072 25.0195 24.2774L27.8981 19.2998C28.078 18.97 28.003 18.5952 27.7181 18.3853L24.7046 16.0165ZM14 20.0045C11.0315 20.0045 8.6027 17.5757 8.6027 14.6072C8.6027 11.6387 11.0315 9.20989 14 9.20989C16.9685 9.20989 19.3973 11.6387 19.3973 14.6072C19.3973 17.5757 16.9685 20.0045 14 20.0045Z" fill="#20825E"/>
</svg>
